{"title":"The Worlds End 2013 HDRip x264 AAC - ViZNU [P2PDL]","uid":8892370,"size":372408537,"categoryP":"video","categoryS":"movies","magnet":"?xt=urn:btih:49a136122beeb0c741b32f62f4c9198d2f37c249&amp;dn=The+Worlds+End+2013+HDRip+x264+AAC+-+ViZNU+%5BP2PDL%5D&amp;tr=udp%3A%2F%2Ftracker.openbittorrent.com%3A80&amp;tr=udp%3A%2F%2Fopen.demonii.com%3A1337&amp;tr=udp%3A%2F%2Ftracker.coppersurfer.tk%3A6969&amp;tr=udp%3A%2F%2Fexodus.desync.com%3A6969","seeders":2,"leechers":1,"uploader":"ValidusVyto","files":-1,"time":1378615829,"description":"_______ Visit us at our Semi Public Bittorrent Community ________\n  &lt;a href=&quot;\nhttp://p2pdl.com&quot; rel=&quot;nofollow&quot; target=&quot;_NEW&quot;&gt;\nhttp://p2pdl.com&lt;/a&gt;  _____________________________ &lt;a href=&quot; http://p2pdl.com&quot; rel=&quot;nofollow&quot; target=&quot;_NEW&quot;&gt; http://p2pdl.com&lt;/a&gt;\n\n\n\nThe Worlds End 2013 HDRip x264 AAC - ViZNU\n\n\nGenre: Action | Comedy | Sci-Fi\nPlot: Five friends who reunite in an attempt to top their epic pub crawl from 20\nyears earlier unwittingly become humankind's only hope for survival. \nDirector: Edgar Wright\nStars: Simon Pegg, Nick Frost, Martin Freeman.\nRated: R for pervasive language including sexual references. \n\n\nInfo: &lt;a href=&quot;\nhttp://www.imdb.com/title/tt1213663/&quot; rel=&quot;nofollow&quot; target=&quot;_NEW&quot;&gt;\nhttp://www.imdb.com/title/tt1213663/&lt;/a&gt;\n\n\nFormat                         : MPEG-4\nFile size                      : 351 MiB\nDuration                       : 1h 44mn\nOverall bit rate               : 470 Kbps\n\nVideo\nFormat                         : AVC\nBit rate                       : 427 Kbps\nWidth                          : 720 pixels\nHeight                         : 304 pixels\nDisplay aspect ratio           : 2.35:1\nFrame rate mode                : Constant\nFrame rate                     : 25.000 fps\nBit depth                      : 10 bits\nStream size                    : 319 MiB (91%)\nWriting library                : x264 core 138 r2358\n\nAudio\nFormat                         : AAC\nBit rate mode                  : Variable\nBit rate                       : 40.0 Kbps\nChannel(s)                     : 2 channels\nChannel positions              : Front: L R\nSampling rate                  : 48.0 KHz\nStream size                    : 29.9 MiB (9%)\nLanguage                       : English\n\nNote: Used LeTV-SmY as source, contains hardcoded subs.\n &lt;a href=&quot;\nhttp://ultraimg.com/images/7zhty.png&quot; rel=&quot;nofollow&quot; target=&quot;_NEW&quot;&gt;\nhttp://ultraimg.com/images/7zhty.png&lt;/a&gt; &lt;a href=&quot;\nhttp://ultraimg.com/images/75vW3.png&quot; rel=&quot;nofollow&quot; target=&quot;_NEW&quot;&gt;\nhttp://ultraimg.com/images/75vW3.png&lt;/a&gt; &lt;a href=&quot;\nhttp://ultraimg.com/images/AJq4.png&quot; rel=&quot;nofollow&quot; target=&quot;_NEW&quot;&gt;\nhttp://ultraimg.com/images/AJq4.png&lt;/a&gt; &lt;a href=&quot;\nhttp://ultraimg.com/images/Xwksy.png&quot; rel=&quot;nofollow&quot; target=&quot;_NEW&quot;&gt;\nhttp://ultraimg.com/images/Xwksy.png&lt;/a&gt; &lt;a href=&quot;\nhttp://ultraimg.com/images/nBzcX.png&quot; rel=&quot;nofollow&quot; target=&quot;_NEW&quot;&gt;\nhttp://ultraimg.com/images/nBzcX.png&lt;/a&gt; &lt;a href=&quot;\nhttp://ultraimg.com/images/SGmY5.png&quot; rel=&quot;nofollow&quot; target=&quot;_NEW&quot;&gt;\nhttp://ultraimg.com/images/SGmY5.png&lt;/a&gt;\n\n----------------------------------------------------------------------------------------------------\n\n\nEncoded using revolutionary 10bit encoding, which enables us to provide you more crispier \nand sharper images at small sizes, just make sure you follow our instructions without a fault.\nRecommend to you to use latest version of VLC player. Install K-Lite Codec Pack or shark007 codecs\nin case of any kind of problem in playback (For non-VLC Media Player users). Alternatively, install\nCore AVC codecs, the fastest decoder that there is coupled with Community Center Codec Pack and play\non Windows Media Player Classic. Check sample to be sure.\nEnjoy!\n\nEncoder Notes:Looking For Early Access To Anything You Can Provide DVDScr, R5, DVDR, BluRay, Direct\nAudio, Music Releases and Seedboxes. We require dedicated servers, so as to do more \nand fast releases of movies.\nIf You Got anything to offer please contact us at &quot;&lt;a class=&quot;__cf_email__&quot; href=&quot;/cdn-cgi/l/email-protection&quot; data-cfemail=&quot;63131104230b16100b4d000c0e&quot;&gt;[email&amp;#160;protected]&lt;/a&gt;&lt;script cf-hash='f9e31' type=&quot;text/javascript&quot;&gt;\n/* &lt;![CDATA[ */!function(){try{var t=&quot;currentScript&quot;in document?document.currentScript:function(){for(var t=document.getElementsByTagName(&quot;script&quot;),e=t.length;e--;)if(t[e].getAttribute(&quot;cf-hash&quot;))return t[e]}();if(t&amp;&amp;t.previousSibling){var e,r,n,i,c=t.previousSibling,a=c.getAttribute(&quot;data-cfemail&quot;);if(a){for(e=&quot;&quot;,r=parseInt(a.substr(0,2),16),n=2;a.length-n;n+=2)i=parseInt(a.substr(n,2),16)^r,e+=String.fromCharCode(i);e=document.createTextNode(e),c.parentNode.replaceChild(e,c)}}}catch(u){}}();/* ]]&gt; */&lt;/script&gt;&quot;.\n\nFace book Fan Page:  \nSearch P2PDL on FB and hit like!!!\n\nFor more of our team uploads visit @                                            &lt;a href=&quot;\nhttp://thepiratebay.se/user/vitamin_x&quot; rel=&quot;nofollow&quot; target=&quot;_NEW&quot;&gt;\nhttp://thepiratebay.se/user/vitamin_x&lt;/a&gt;\t\n","torrent":{"xt":"urn:btih:49a136122beeb0c741b32f62f4c9198d2f37c249","amp;dn":"The+Worlds+End+2013+HDRip+x264+AAC+-+ViZNU+%5BP2PDL%5D","amp;tr":["udp%3A%2F%2Ftracker.openbittorrent.com%3A80","udp%3A%2F%2Fopen.demonii.com%3A1337","udp%3A%2F%2Ftracker.coppersurfer.tk%3A6969","udp%3A%2F%2Fexodus.desync.com%3A6969"],"infoHash":"49a136122beeb0c741b32f62f4c9198d2f37c249","infoHashBuffer":{"type":"Buffer","data":[73,161,54,18,43,238,176,199,65,179,47,98,244,201,25,141,47,55,194,73]},"announce":[],"urlList":[]}}